<?xml version="1.0" encoding="utf-8"?>
<!-- Generator: Adobe Illustrator 20.1.0, SVG Export Plug-In . SVG Version: 6.00 Build 0)  -->
<svg version="1.1" id="Layer_1" xmlns="http://www.w3.org/2000/svg" xmlns:xlink="http://www.w3.org/1999/xlink" x="0px" y="0px"
	 viewBox="0 0 24 24" style="enable-background:new 0 0 24 24;" xml:space="preserve">
<style type="text/css">
	.st0{fill:none;stroke:#1C71FF;stroke-linecap:round;stroke-linejoin:round;stroke-miterlimit:10;}
	.st1{fill:#1C71FF;}
</style>
<g id="Outline_Icons">
	<g>
		<circle class="st0" cx="12" cy="12" r="11.5"/>
		<g>
			<path class="st1" d="M15.7,11.2c0.6,0.1,1.1,0.4,1.3,0.8s0.4,1.1,0.4,2c0,1.8-0.5,3.3-1.6,4.4c-1.1,1.1-2.5,1.7-4.2,1.7
				c-0.6,0-1.3-0.1-1.9-0.3s-1.1-0.6-1.6-1c-0.5-0.4-0.9-1-1.1-1.5c-0.2-0.5-0.3-1.1-0.3-1.6c0-0.6,0.1-1.1,0.4-1.4
				c0.2-0.3,0.7-0.5,1.2-0.7C8.1,13.3,8,13.1,8,12.9c0-0.1-0.1-0.3-0.1-0.4c0-0.3,0.1-0.6,0.5-1C8.7,11.2,9,11,9.3,11
				c0.1,0,0.2,0,0.4,0c0.1,0,0.3,0.1,0.5,0.2C9.8,9.8,9.3,8.6,9.1,7.7S8.7,6.3,8.7,6c0-0.4,0.1-0.8,0.3-1C9.3,4.7,9.6,4.5,10,4.5
				c0.6,0,1.5,1.5,2.5,4.5c0.2,0.5,0.3,0.9,0.4,1.2c0.1-0.2,0.2-0.5,0.3-0.9c1-3,1.9-4.5,2.6-4.5c0.3,0,0.6,0.1,0.9,0.3
				c0.2,0.2,0.3,0.6,0.3,1c0,0.3-0.1,0.9-0.3,1.7C16.5,8.8,16.2,9.9,15.7,11.2z M8,15.6c0.1,0.1,0.2,0.3,0.4,0.5
				c0.4,0.6,0.9,1,1.3,1c0.1,0,0.2,0,0.3-0.1c0.1-0.1,0.1-0.2,0.1-0.2c0-0.1,0-0.3-0.2-0.5c-0.1-0.2-0.3-0.5-0.6-0.8
				c-0.3-0.3-0.5-0.6-0.7-0.8c-0.2-0.1-0.3-0.2-0.4-0.2c-0.2,0-0.5,0.1-0.7,0.4s-0.3,0.6-0.3,0.9c0,0.3,0,0.6,0.2,1
				c0.1,0.3,0.3,0.7,0.6,1.1c0.4,0.5,0.9,0.9,1.6,1.2s1.3,0.4,2.1,0.4c1.4,0,2.5-0.5,3.5-1.5c0.9-1,1.4-2.3,1.4-3.9
				c0-0.5,0-0.8-0.1-1.1c0-0.3-0.2-0.5-0.3-0.6c-0.3-0.2-0.8-0.4-1.7-0.6c-0.8-0.2-1.7-0.3-2.6-0.3c-0.2,0-0.4,0-0.5,0.1
				c-0.1,0.1-0.1,0.2-0.1,0.4c0,0.5,0.2,0.8,0.8,1c0.5,0.2,1.4,0.3,2.6,0.3h0.4c0.1,0,0.2,0,0.2,0.1c0,0.1,0.1,0.2,0.1,0.3
				c-0.1,0.1-0.3,0.2-0.7,0.4s-0.6,0.3-0.8,0.4c-0.4,0.3-0.8,0.7-1,1.1c-0.2,0.4-0.4,0.8-0.4,1.2c0,0.2,0,0.5,0.1,0.8
				c0.1,0.3,0.1,0.5,0.1,0.6v0.1v0.1c-0.3,0-0.5-0.2-0.7-0.5c-0.2-0.3-0.2-0.8-0.2-1.4v-0.1c0,0-0.1,0.1-0.1,0.1s-0.1,0-0.2,0
				c0,0-0.1,0-0.2,0c0,0-0.1,0-0.2,0c0,0.1,0,0.1,0,0.2s0,0.1,0,0.2c0,0.2-0.1,0.5-0.3,0.7c-0.2,0.2-0.4,0.3-0.7,0.3
				c-0.4,0-0.9-0.2-1.4-0.6c-0.4-0.4-0.7-0.8-0.7-1.3c0-0.1,0-0.1,0-0.2C7.9,15.7,8,15.7,8,15.6z M11.3,15.9c0.1,0,0.2,0,0.3-0.1
				c0.1-0.1,0.1-0.2,0.1-0.3c0-0.1-0.1-0.4-0.3-0.9c-0.2-0.5-0.4-1-0.7-1.4c-0.2-0.3-0.4-0.6-0.6-0.8c-0.2-0.2-0.4-0.2-0.6-0.2
				c-0.1,0-0.3,0.1-0.5,0.3s-0.2,0.3-0.2,0.5c0,0.1,0.1,0.4,0.2,0.8c0.2,0.3,0.4,0.7,0.7,1.1s0.6,0.7,0.9,1
				C10.9,15.8,11.1,15.9,11.3,15.9z M12.3,10.7l-1.2-3.3c-0.3-0.8-0.5-1.4-0.7-1.7c-0.1-0.2-0.3-0.4-0.5-0.4c-0.1,0-0.2,0-0.3,0.1
				C9.4,5.5,9.4,5.7,9.4,5.9c0,0.3,0.1,0.9,0.4,1.7s0.6,1.9,1.1,3.2c0-0.1,0.1-0.1,0.2-0.1c0.1,0,0.2,0,0.3,0c0,0,0.1,0,0.2,0
				C11.8,10.6,12,10.6,12.3,10.7z M13.5,13.9c-0.3,0-0.6,0-0.9-0.1s-0.5-0.1-0.8-0.2c0.1,0.2,0.2,0.4,0.3,0.7
				c0.1,0.2,0.1,0.4,0.2,0.7c0.1-0.2,0.3-0.4,0.5-0.6C13.1,14.2,13.3,14.1,13.5,13.9z M14.9,11c0.5-1.3,0.8-2.4,1.1-3.2
				c0.2-0.8,0.4-1.3,0.4-1.5c0-0.2,0-0.3-0.1-0.5c-0.1-0.1-0.2-0.1-0.3-0.1c-0.2,0-0.4,0.1-0.6,0.5c-0.2,0.3-0.4,0.8-0.7,1.6
				l-1.1,3.1L14.9,11z"/>
		</g>
	</g>
</g>
</svg>
