<?xml version="1.0" encoding="utf-8"?>
<!-- Generator: Adobe Illustrator 21.0.0, SVG Export Plug-In . SVG Version: 6.00 Build 0)  -->
<svg version="1.1" id="Layer_1" xmlns="http://www.w3.org/2000/svg" xmlns:xlink="http://www.w3.org/1999/xlink" x="0px" y="0px"
	 viewBox="0 0 24 24" style="enable-background:new 0 0 24 24;" xml:space="preserve">
<style type="text/css">
	.st0{fill:none;stroke:#1C71FF;stroke-linecap:round;stroke-linejoin:round;stroke-miterlimit:10;}
	.st1{fill:none;stroke:#1C71FF;stroke-linejoin:round;stroke-miterlimit:10;}
	.st2{stroke:#1C71FF;stroke-miterlimit:10;}
	.st3{fill:none;}
</style>
<g id="Outline_Icons">
	<g>
		<circle class="st0" cx="12" cy="12" r="11.5"/>
		<path class="st1" d="M18.5,16.2c0,1.3-1,2.3-2.3,2.3H7.8c-1.3,0-2.3-1-2.3-2.3V7.8c0-1.3,1-2.3,2.3-2.3h8.3c1.3,0,2.3,1,2.3,2.3
			V16.2z"/>
		<line class="st1" x1="5.5" y1="9.5" x2="9.8" y2="9.5"/>
		<line class="st1" x1="14.2" y1="9.5" x2="18.5" y2="9.5"/>
		<circle class="st1" cx="12" cy="11.5" r="3"/>
		<g>
			<polygon class="st2" points="17,7 16,7 16,8 17,8 			"/>
		</g>
		<line class="st1" x1="7.5" y1="5.5" x2="7.5" y2="9.5"/>
		<line class="st1" x1="9.5" y1="5.5" x2="9.5" y2="9.5"/>
	</g>
</g>
<g id="Frames-24px">
	<rect class="st3" width="24" height="24"/>
</g>
</svg>
