<?xml version="1.0" encoding="utf-8"?>
<!-- Generator: Adobe Illustrator 20.1.0, SVG Export Plug-In . SVG Version: 6.00 Build 0)  -->
<svg version="1.1" id="Layer_1" xmlns="http://www.w3.org/2000/svg" xmlns:xlink="http://www.w3.org/1999/xlink" x="0px" y="0px"
	 viewBox="0 0 127 41" style="enable-background:new 0 0 127 41;" xml:space="preserve">
<style type="text/css">
	.st0{fill:#1C71FF;}
</style>
<g>
	<g>
		<g>
			<path class="st0" d="M14.6,22.9c0.1,0.8,0.3,1.4,0.7,1.8c0.7,0.7,1.8,1.1,3.4,1.1c1,0,1.8-0.2,2.6-0.6c0.7-0.4,1.1-0.9,1.1-1.7
				c0-0.6-0.3-1-0.9-1.3c-0.4-0.2-1.1-0.4-2.2-0.7l-2.1-0.5c-1.3-0.3-2.3-0.6-2.9-1c-1.1-0.6-1.7-1.5-1.7-2.6c0-1.3,0.5-2.3,1.6-3.2
				c1.1-0.8,2.5-1.2,4.3-1.2c2.3,0,4,0.6,5.1,1.8c0.6,0.8,1,1.6,0.9,2.5H22c0-0.5-0.3-1-0.6-1.4c-0.6-0.6-1.7-0.9-3.1-0.9
				c-1,0-1.7,0.2-2.3,0.5c-0.5,0.3-0.8,0.8-0.8,1.3c0,0.6,0.3,1.1,1,1.4c0.4,0.2,1,0.4,1.7,0.6l1.7,0.4c1.9,0.4,3.1,0.8,3.8,1.2
				c1,0.6,1.5,1.5,1.5,2.8c0,1.2-0.5,2.3-1.6,3.2c-1,0.9-2.6,1.3-4.8,1.3c-2.3,0-3.9-0.5-4.9-1.4c-1-0.9-1.5-2.1-1.5-3.4L14.6,22.9
				L14.6,22.9z"/>
			<path class="st0" d="M33.2,13.6h2.5l0,1.4c0.4-0.4,0.7-0.6,1.2-0.9c0.8-0.5,2.3-0.8,3.4-0.8c1.2,0,2.2,0.3,2.9,0.8
				c0.4,0.3,0.7,0.6,1,1c0.4-0.4,0.9-1,1.7-1.3c1.2-0.5,2.2-0.5,3.1-0.5c2.1,0,3.5,0.7,4.2,2c0.4,0.7,0.6,1.7,0.6,2.9
				c0,0,0,6.4,0,6.5c0,0.2,0.2,0.4,0.4,0.4c0.2,0,0.6,0,0.6,0v2.4h-1.2c-1,0-2.5-0.5-2.5-2.5c0-2.3,0-7.2,0-7.2
				c0-0.9-0.3-1.6-0.8-1.9c-0.5-0.3-1.1-0.5-1.9-0.5c-1,0-1.9,0.3-2.6,0.9c-0.7,0.6-1.1,1.6-1.1,3.1v8.1h-2.6v-9.1
				c0-0.9-0.1-1.6-0.4-2.1c-0.4-0.6-1.1-1-2.2-1c-1,0-1.9,0.3-2.7,1c-0.8,0.7-1.2,1.9-1.2,3.7v7.4h-2.6L33.2,13.6L33.2,13.6
				L33.2,13.6z"/>
			<path class="st0" d="M98.7,13.9c1,0.5,1.8,1.1,2.3,1.8c0.5,0.7,0.9,1.5,1,2.4c0.2,0.6,0.2,1.6,0.2,3H91.1c0,1.4,0.4,2.5,1.1,3.4
				c0.7,0.8,1.7,1.3,3.2,1.3c1.3,0,2.4-0.4,3.2-1.2c0.4-0.5,0.8-1,0.9-1.6h2.5c-0.1,0.5-0.3,1.1-0.7,1.7c-0.4,0.6-0.8,1.1-1.3,1.5
				c-0.8,0.7-1.7,1.1-2.9,1.4c-0.6,0.1-1.3,0.2-2.1,0.2c-1.9,0-3.5-0.6-4.8-1.9c-1.3-1.2-2-3-2-5.2c0-2.2,0.7-4,2-5.4
				c1.3-1.4,3.1-2.1,5.2-2.1C96.6,13.2,97.7,13.4,98.7,13.9z M99.6,19.3c-0.1-1-0.3-1.8-0.7-2.4c-0.7-1.1-1.9-1.7-3.5-1.7
				c-1.2,0-2.2,0.4-3,1.1c-0.8,0.8-1.2,1.7-1.3,2.9C91.2,19.3,99.6,19.3,99.6,19.3z"/>
			<path class="st0" d="M103.7,13.5c0,0,0,0,1.7,0c1.1,0,1.7,0.8,1.9,1.5c1.3-2,3.3-1.8,4.3-1.8c1.6,0,2.7,1.3,2.7,1.3l-1.4,1.7
				c-0.2-0.1-0.6-0.6-1.9-0.6c-1.3,0-1.6,0.4-2.3,1.2c-0.7,0.8-1,1.6-1,2.6v8H105V16.8c0-0.6-0.3-0.9-0.8-0.9l-0.5,0L103.7,13.5
				L103.7,13.5z"/>
			<path class="st0" d="M83.7,8.2h2.6c0,0,0,16.4,0,16.5c0,0.2,0.2,0.4,0.4,0.4c0.2,0,0.6,0,0.6,0v2.4h-1.2c-1,0-2.4-0.5-2.4-2.5
				C83.7,22.7,83.7,8.2,83.7,8.2z"/>
			<path class="st0" d="M67.1,32.7h2.6V27c-0.7,0.6-1.6,1.1-2.6,1.4V32.7z"/>
			<path class="st0" d="M74.4,13.1c-1.4,0-2.8,0.4-3.9,1.4c0.5,0.5,0.9,1.1,1.2,1.8c0.7-0.5,1.6-0.8,2.6-0.8c2.8,0,4.7,2.5,4.7,4.9
				c0,2.9-2.2,4.8-4.6,4.8c-1,0-1.8-0.3-2.6-0.8c-0.3,0.6-0.7,1.2-1.2,1.7c0.8,0.7,2.1,1.4,4,1.4c4.3,0,6.9-3.6,6.9-7.1
				C81.5,16.9,79.1,13.1,74.4,13.1z"/>
			<path class="st0" d="M70.7,17.2c-0.3-0.6-0.7-1.2-1.1-1.7c-0.1-0.1-0.1-0.1-0.2-0.2c-0.6-0.7-1.4-1.2-2.4-1.6
				c-0.8-0.3-1.7-0.5-2.8-0.5c-1.8,0-3.6,0.7-4.9,2.5h0v-2.1h-2.4v19.2h2.6v-7.5h0c0.5,0.9,2,2.3,4.8,2.3c0.9,0,1.8-0.2,2.6-0.5
				c1-0.4,1.9-1,2.6-1.8c0,0,0,0,0,0c0.4-0.5,0.8-1.1,1.1-1.7c0.4-1,0.7-2,0.7-3.1C71.5,19.4,71.2,18.2,70.7,17.2z M67.1,24.3
				c-0.8,0.6-1.8,1-2.9,1c-2.6,0-4.7-2.1-4.7-4.9c0-2.5,1.9-4.9,4.6-4.9c1.2,0,2.1,0.4,2.9,1.1c1.1,0.9,1.8,2.4,1.8,3.8
				C68.9,22.1,68.2,23.4,67.1,24.3z"/>
			<path class="st0" d="M27.2,13.6c0,0,0,10.8,0,11.4c0,2,1.4,2.5,2.4,2.5h1.2v-2.4l-0.6,0c-0.2,0-0.4-0.2-0.4-0.4l0-11.1
				c-0.4,0.1-0.7,0.2-1.3,0.2C27.9,13.8,27.2,13.6,27.2,13.6z"/>
		</g>
		<circle class="st0" cx="28.6" cy="8.9" r="2.4"/>
	</g>
</g>
</svg>
