<?xml version="1.0" encoding="utf-8"?>
<!-- Generator: Adobe Illustrator 20.1.0, SVG Export Plug-In . SVG Version: 6.00 Build 0)  -->
<svg version="1.1" id="Layer_1" xmlns="http://www.w3.org/2000/svg" xmlns:xlink="http://www.w3.org/1999/xlink" x="0px" y="0px"
	 viewBox="0 0 24 24" style="enable-background:new 0 0 24 24;" xml:space="preserve">
<style type="text/css">
	.st0{fill:none;stroke:#1C71FF;stroke-linecap:round;stroke-linejoin:round;stroke-miterlimit:10;}
	.st1{fill:none;stroke:#1C71FF;stroke-miterlimit:10;}
</style>
<circle class="st0" cx="12" cy="12" r="11.5"/>
<g>
	<path class="st1" d="M14.3,15v0.7l3.9,1.8c0.4,0.2,0.8,0.1,0.8-0.3V8.7c0,0,0-0.1-0.1-0.1l-0.2-0.1"/>
	<path class="st1" d="M11.3,11"/>
	<path class="st1" d="M11.3,11l2.6-4c0.3-0.4,0.9-0.6,1.3-0.4l3.2,1.5c0.5,0.2,0.6,0.5,0.3,0.9l-4,6.2c-0.2,0.2-0.5,0.3-0.7,0.2
		l-4.2-2c0,0,0,0,0,0l0.1-0.2"/>
	<path class="st1" d="M9.7,13.4C9.7,13.4,9.7,13.4,9.7,13.4l4.3,2.1c0.1,0,0.2-0.1,0.1-0.2L9.7,8.5c0,0-0.1-0.1-0.1-0.1L5.7,6.5v0
		c-0.4-0.2-0.5,0-0.3,0.3"/>
	<path class="st1" d="M9.7,17.1c0,0.4-0.3,0.5-0.6,0.4l-3.6-1.7c-0.2-0.1-0.4-0.4-0.4-0.6V6.8c0-0.3,0.2-0.4,0.5-0.3l4.1,2
		c0,0,0,0,0,0V17.1L9.7,17.1z"/>
</g>
</svg>
