<?xml version="1.0" encoding="utf-8"?>
<!-- Generator: Adobe Illustrator 20.1.0, SVG Export Plug-In . SVG Version: 6.00 Build 0)  -->
<svg version="1.1" id="Layer_1" xmlns="http://www.w3.org/2000/svg" xmlns:xlink="http://www.w3.org/1999/xlink" x="0px" y="0px"
	 viewBox="0 0 24 24" style="enable-background:new 0 0 24 24;" xml:space="preserve">
<style type="text/css">
	.st0{fill:none;stroke:#1C71FF;stroke-linejoin:round;}
	.st1{fill:none;stroke:#1C71FF;stroke-linecap:round;stroke-linejoin:round;}
</style>
<title>twitter</title>
<g id="Layer_2">
	<g id="Layer_1-2">
		<path class="st0" d="M18.5,7.3c0,0-1.4,0.2-2,0.3c-1-1-2.7-1-3.7,0c-0.6,0.6-0.9,1.5-0.7,2.4C9.9,9.9,8,8.9,6.6,7.3
			C5.9,8.5,6.3,10,7.4,10.8c-0.4,0-0.8-0.1-1.2-0.3l0,0c0,1.3,0.9,2.3,2.1,2.6c-0.4,0.1-0.8,0.1-1.2,0c0.3,1.1,1.3,1.8,2.5,1.8
			c-1.1,0.9-2.5,1.3-3.9,1.1c3.5,2.2,8.1,1.2,10.3-2.3c0.8-1.2,1.2-2.6,1.2-4c0-0.1,0-0.2,0-0.3C17.8,9,18.1,7.9,18.5,7.3z"/>
		<circle class="st1" cx="12" cy="12" r="11.5"/>
	</g>
</g>
</svg>
